<svg width="50" height="43" viewBox="0 0 50 43" fill="none" xmlns="http://www.w3.org/2000/svg">
<g clip-path="url(#clip0)">
<path d="M37.4899 0H12.5101L0 21.3687L12.5101 42.7374H37.4899L50 21.3687L37.4899 0ZM35.9481 40.0325H14.0655L3.13768 21.3687L14.0655 2.7049H35.9481L46.8758 21.3687L35.9481 40.0325Z" fill="#384661"/>
<path d="M24.7241 11.3687C19.3549 11.3687 15 15.7235 15 21.0928C15 26.462 19.3549 30.8169 24.7241 30.8169C30.0933 30.8169 34.4482 26.462 34.4482 21.0928C34.4482 21.0928 34.4482 21.0928 34.4482 21.0792C34.4347 15.7235 30.0933 11.3687 24.7241 11.3687ZM24.7241 28.112C20.8426 28.112 17.7049 24.9743 17.7049 21.0928C17.7049 17.2112 20.8426 14.0735 24.7241 14.0735C28.6056 14.0735 31.7433 17.2112 31.7433 21.0928C31.7433 24.9608 28.6056 28.0984 24.7241 28.112Z" fill="#384661"/>
</g>
<defs>
<clipPath id="clip0">
<rect width="50" height="42.7374" fill="white"/>
</clipPath>
</defs>
</svg>
