<svg width="15" height="12" viewBox="0 0 15 12" fill="none" xmlns="http://www.w3.org/2000/svg">
<path d="M15 9.51947C15 9.84831 14.9075 10.1532 14.7593 10.4214L10.0232 5.12233L14.708 1.02358C14.8902 1.31279 15 1.6525 15 2.01961V9.51947ZM7.50002 6.08448L14.0187 0.380779C13.7512 0.234337 13.45 0.144531 13.125 0.144531H1.87499C1.54965 0.144531 1.24832 0.234337 0.981903 0.380779L7.50002 6.08448ZM9.31738 5.73942L7.80848 7.06051C7.72022 7.1374 7.61032 7.17579 7.50002 7.17579C7.38965 7.17579 7.27975 7.1374 7.19149 7.06051L5.68225 5.73936L0.886223 11.1061C1.1737 11.2865 1.5106 11.3945 1.87496 11.3945H13.125C13.4893 11.3945 13.8264 11.2865 14.1138 11.1061L9.31738 5.73942ZM0.292079 1.02355C0.10987 1.31275 0 1.65247 0 2.01961V9.5195C0 9.84834 0.092063 10.1532 0.240792 10.4214L4.97635 5.12144L0.292079 1.02355Z" fill="#ffff"/>
</svg>

