<svg width="50" height="50" viewBox="0 0 50 50" fill="none" xmlns="http://www.w3.org/2000/svg">
<g clip-path="url(#clip0)">
<path d="M25.6729 0.15274C25.1877 -0.0777167 24.62 -0.0456091 24.1668 0.241247C23.7122 0.526624 23.4375 1.02556 23.4375 1.56262C23.4375 9.97945 19.2764 13.1548 14.8712 16.5163C10.6322 19.7512 6.24988 23.0959 6.24988 30.8596C6.24988 41.4141 14.6606 50.0004 24.9999 50.0004C35.3393 50.0004 43.75 41.4142 43.75 30.8596C43.7501 17.1221 31.1951 2.78788 25.6729 0.15274ZM18.75 40.2348C18.75 37.7339 20.0256 36.7344 21.7911 35.3504C23.4452 34.0549 25.4151 32.5123 26.207 29.5109C28.4455 31.8409 31.2501 36.2141 31.2501 40.2348C31.2501 43.897 28.4471 46.8755 25.0002 46.8755C21.553 46.8755 18.75 43.897 18.75 40.2348ZM33.5227 44.2521C34.0588 43.0233 34.3751 41.67 34.3751 40.2348C34.3751 33.6292 28.6698 26.6208 25.6883 25.159C25.2015 24.9226 24.6263 24.9484 24.1731 25.2369C23.7153 25.5223 23.4376 26.0243 23.4376 26.5629C23.4376 30.0907 21.8597 31.3268 19.8639 32.8907C17.8772 34.4471 15.625 36.211 15.625 40.2348C15.625 41.6702 15.9414 43.0235 16.4775 44.2523C12.2107 41.3899 9.37488 36.4659 9.37488 30.8597C9.37488 24.6417 12.8005 22.0279 16.7677 19.0005C20.9075 15.8405 25.5462 12.3019 26.4174 4.33063C31.8527 8.58636 40.625 20.0946 40.625 30.8597C40.625 36.4659 37.7892 41.3899 33.5227 44.2521Z" fill="#101084"/>
</g>
<defs>
<clipPath id="clip0">
<rect width="50" height="50" fill="white"/>
</clipPath>
</defs>
</svg>
