<svg width="13" height="15" viewBox="0 0 13 15" fill="none" xmlns="http://www.w3.org/2000/svg">
<path d="M12.0788 4.37566C12.0183 4.14887 11.8954 3.90721 11.8045 3.69564C10.7167 1.08142 8.33993 0.144531 6.42078 0.144531C3.85165 0.144531 1.02206 1.86724 0.644287 5.41815V6.14362C0.644287 6.1739 0.654722 6.44587 0.669543 6.58191C0.881315 8.27419 2.21665 10.0727 3.21393 11.765C4.28686 13.5781 5.40018 15.3617 6.50319 17.1445C7.18332 15.9811 7.86101 14.8023 8.52565 13.669C8.70679 13.3364 8.91706 13.004 9.0984 12.6865C9.21926 12.4752 9.45017 12.2638 9.55566 12.0671C10.6285 10.1028 12.3555 8.12328 12.3555 6.17386V5.37302C12.3555 5.16168 12.0936 4.42123 12.0788 4.37566ZM6.46781 8.01752C5.71262 8.01752 4.88601 7.6399 4.478 6.59705C4.41721 6.43105 4.42211 6.09837 4.42211 6.0679V5.59945C4.42211 4.27001 5.55093 3.66544 6.53295 3.66544C7.74192 3.66544 8.67695 4.63269 8.67695 5.84166C8.67695 7.05059 7.67678 8.01752 6.46781 8.01752Z" fill="#ffff"/>
</svg>
